<?xml version="1.0" standalone="no"?>
<!DOCTYPE svg PUBLIC "-//W3C//DTD SVG 20010904//EN"
 "http://www.w3.org/TR/2001/REC-SVG-20010904/DTD/svg10.dtd">
<svg version="1.0" xmlns="http://www.w3.org/2000/svg"
 width="1200.000000pt" height="436.000000pt" viewBox="0 0 1200.000000 436.000000"
 preserveAspectRatio="xMidYMid meet">

<g transform="translate(0.000000,436.000000) scale(0.100000,-0.100000)"
fill="#ffffff" stroke="none">
<path d="M9755 3832 c-29 -7 -30 -9 -33 -75 -10 -222 132 -391 385 -458 82
-22 308 -32 366 -16 25 7 27 11 27 65 0 127 -49 252 -129 332 -52 52 -162 111
-256 136 -64 17 -308 28 -360 16z"/>
<path d="M400 3128 c0 -405 5 -754 11 -823 12 -139 48 -332 79 -425 56 -170
172 -356 283 -456 146 -131 355 -230 528 -250 l59 -7 0 151 0 150 -37 7 c-110
20 -255 106 -343 202 -101 111 -182 281 -214 453 -30 164 -36 319 -36 1008 l0
692 -165 0 -165 0 0 -702z"/>
<path d="M2330 3091 c0 -835 -4 -904 -66 -1090 -52 -156 -102 -241 -203 -341
-104 -103 -197 -156 -323 -184 l-28 -6 0 -152 0 -151 53 6 c189 23 381 116
529 256 169 160 271 356 327 631 38 184 41 249 41 1017 l0 753 -165 0 -165 0
0 -739z"/>
<path d="M3784 3813 c21 -57 871 -2139 875 -2145 7 -8 164 347 164 368 0 6
-157 413 -349 903 l-348 891 -174 0 c-162 0 -174 -1 -168 -17z"/>
<path d="M5753 3492 c-520 -1330 -762 -1941 -828 -2095 -42 -98 -75 -186 -73
-195 3 -15 22 -17 153 -20 l150 -2 535 1311 c294 722 536 1318 538 1325 3 11
-28 14 -170 14 l-173 0 -132 -338z"/>
<path d="M7952 3783 c-11 -27 -158 -385 -327 -798 -169 -412 -403 -985 -521
-1272 -118 -287 -214 -524 -214 -527 0 -3 75 -6 168 -6 l167 0 249 638 c137
350 334 855 439 1122 183 470 215 554 298 783 l38 107 -138 0 -139 0 -20 -47z"/>
<path d="M11105 3604 c-131 -28 -210 -63 -330 -149 -153 -109 -250 -221 -321
-370 -44 -93 -84 -221 -84 -269 0 -39 41 -76 85 -76 41 0 85 36 85 69 0 33
107 236 169 318 140 188 250 269 412 302 59 12 95 40 100 76 6 38 -11 74 -41
90 -29 15 -38 16 -75 9z"/>
<path d="M8392 3440 c-5 -14 -37 -102 -71 -196 l-63 -170 166 -423 c91 -232
166 -426 166 -432 0 -5 -130 -9 -332 -9 l-333 0 -46 -123 -46 -122 412 -3
c314 -2 415 -5 423 -15 5 -6 79 -182 162 -389 l153 -378 179 0 c131 0 177 3
172 11 -4 7 -215 521 -470 1143 -393 960 -464 1127 -472 1106z"/>
<path d="M10067 2770 c-67 -17 -133 -58 -185 -114 -64 -71 -87 -134 -87 -241
0 -71 4 -89 33 -147 40 -81 111 -149 188 -177 81 -31 100 -28 145 22 41 47
133 101 190 112 l35 7 -23 47 c-47 100 -39 223 22 325 l33 55 -36 32 c-79 69
-216 104 -315 79z"/>
<path d="M10645 2742 c-112 -54 -172 -128 -202 -246 -14 -57 -14 -77 -4 -133
7 -36 21 -83 31 -103 18 -36 21 -37 84 -42 83 -7 147 -38 214 -105 l53 -53 47
11 c109 24 213 113 251 215 15 39 21 79 21 138 0 75 -3 90 -36 154 -37 76 -83
121 -164 163 -35 18 -65 24 -140 26 -88 4 -99 2 -155 -25z"/>
<path d="M9750 2160 c-88 -25 -178 -101 -218 -181 -88 -182 -16 -392 166 -481
59 -30 76 -33 152 -33 76 0 93 4 151 32 36 18 73 41 83 51 16 19 15 22 -13 68
-31 49 -61 146 -61 194 0 23 13 76 35 148 6 16 3 22 -8 22 -9 0 -42 10 -73 21
-54 21 -136 89 -175 145 -11 17 -20 20 -39 14z"/>
<path d="M10399 2161 c-106 -21 -208 -104 -257 -209 -22 -48 -27 -71 -26 -143
0 -77 3 -94 32 -152 71 -144 227 -226 378 -198 123 23 205 85 260 197 34 68
37 82 37 157 0 61 -5 93 -20 127 -74 164 -238 253 -404 221z"/>
<path d="M11145 2130 c-48 -69 -175 -140 -252 -140 -27 0 -28 -3 -9 -33 8 -12
22 -49 31 -82 21 -79 12 -159 -27 -247 -17 -37 -28 -73 -25 -80 8 -22 98 -66
165 -79 155 -32 320 56 390 209 32 71 36 180 9 259 -34 96 -121 184 -216 218
l-39 14 -27 -39z"/>
<path d="M10125 1460 c-49 -51 -125 -82 -218 -89 l-82 -6 -18 -50 c-25 -73
-19 -192 15 -265 34 -74 96 -136 175 -172 121 -57 276 -36 374 51 l43 38 -22
35 c-53 86 -69 220 -38 321 11 36 11 49 3 52 -62 17 -113 42 -150 76 -25 21
-47 39 -49 39 -2 0 -17 -14 -33 -30z"/>
<path d="M10707 1201 c-59 -142 -111 -267 -114 -279 -5 -19 3 -26 53 -50 52
-23 71 -27 154 -27 85 0 101 3 153 29 68 35 140 108 170 174 29 65 34 198 10
267 l-18 50 -75 6 c-75 6 -145 30 -198 67 l-27 20 -108 -257z"/>
<path d="M10631 1388 c-23 -11 -68 -22 -98 -25 -52 -6 -56 -8 -71 -42 -11 -24
-16 -66 -16 -126 -1 -78 3 -98 27 -149 16 -35 31 -56 36 -50 5 5 41 88 81 184
40 96 79 187 86 203 17 32 14 32 -45 5z"/>
<path d="M10426 841 c-15 -15 -52 -41 -83 -57 -46 -23 -73 -29 -146 -32 l-89
-5 4 -82 c8 -145 79 -254 207 -314 47 -22 70 -26 146 -26 76 0 99 4 146 26 79
37 133 90 171 167 28 57 32 76 33 146 l0 81 -75 6 c-77 7 -114 18 -163 52
l-27 19 -19 -44 c-10 -24 -43 -99 -71 -168 -29 -69 -54 -127 -56 -129 -3 -3
-71 23 -92 34 -1 1 8 26 22 56 38 88 125 299 122 299 -1 0 -15 -13 -30 -29z"/>
</g>
</svg>
